# xmcd
#
# Track frame offsets:
#	150
#	18561
#	35711
#	55213
#	71715
#	89868
#	112345
#	128867
#	149142
#	169350
#	190716
#	209841
#
# Disc length: 3121 seconds
#
# Revision: 0
# Processed by: cddbd v1.4PL0 Copyright (c) Steve Scherf et al.
# Submitted via: EasyCDDAExtractor 4.6.0.1
#
DISCID=ce0c2f0c
DTITLE=Los Delta Blues - Poker de Ases
DYEAR=1900
DGENRE=Blues
TTITLE0=Viajo en Blues
TTITLE1=Para qué
TTITLE2=Sólo
TTITLE3=Taxi
TTITLE4=Ella lo Hace Mejor
TTITLE5=Lloras de Amor
TTITLE6=100% algodón
TTITLE7=Todo es distinto
TTITLE8=No soy moderno
TTITLE9=Historias de dos
TTITLE10=Extraño tu amor
TTITLE11=Chitlin's con carne
EXTD=
EXTT0=
EXTT1=
EXTT2=
EXTT3=
EXTT4=
EXTT5=
EXTT6=
EXTT7=
EXTT8=
EXTT9=
EXTT10=
EXTT11=
PLAYORDER=
